<svg width="24" height="24" viewBox="0 0 24 24" fill="none" xmlns="http://www.w3.org/2000/svg">
<path d="M5.74 16C5.85 15.51 5.65 14.81 5.3 14.46L2.87 12.03C2.11 11.27 1.81 10.46 2.03 9.76C2.26 9.06 2.97 8.58 4.03 8.4L7.15 7.88C7.6 7.8 8.15 7.4 8.36 6.99L10.08 3.54C10.58 2.55 11.26 2 12 2C12.74 2 13.42 2.55 13.92 3.54L15.64 6.99C15.77 7.25 16.04 7.5 16.33 7.67L5.56 18.44C5.42 18.58 5.18 18.45 5.22 18.25L5.74 16Z" fill="#292D32"/>
<path d="M18.7 14.4599C18.34 14.8199 18.14 15.5099 18.26 15.9999L18.95 19.0099C19.24 20.2599 19.06 21.1999 18.44 21.6499C18.19 21.8299 17.89 21.9199 17.54 21.9199C17.03 21.9199 16.43 21.7299 15.77 21.3399L12.84 19.5999C12.38 19.3299 11.62 19.3299 11.16 19.5999L8.23 21.3399C7.12 21.9899 6.17 22.0999 5.56 21.6499C5.33 21.4799 5.16 21.2499 5.05 20.9499L17.21 8.7899C17.67 8.3299 18.32 8.1199 18.95 8.2299L19.96 8.3999C21.02 8.5799 21.73 9.0599 21.96 9.7599C22.18 10.4599 21.88 11.2699 21.12 12.0299L18.7 14.4599Z" fill="#292D32"/>
</svg>
