<svg version="1.1" id="Layer_1" xmlns="http://www.w3.org/2000/svg" xmlns:xlink="http://www.w3.org/1999/xlink" x="0px" y="0px"
     viewBox="0 0 24 24" style="enable-background:new 0 0 24 24;" xml:space="preserve">
<g>
	<path id="Vector" class="st0" d="M3,10.4c0.5,0,0.9-0.1,1.2-0.2C4.5,10,4.8,9.8,5.1,9.6C5.3,9.3,5.5,9,5.6,8.7
		c0.1-0.3,0.2-0.7,0.2-1H4.3c-0.5,0-1-0.1-1.3-0.2C2.6,7.4,2.3,7.2,2.1,7C1.9,6.8,1.8,6.5,1.7,6.2C1.6,5.9,1.6,5.5,1.6,5.1
		c0-0.4,0.1-0.8,0.2-1.1C1.9,3.7,2,3.3,2.3,3.1c0.2-0.3,0.5-0.5,0.8-0.6c0.3-0.2,0.7-0.3,1.1-0.3c0.3,0,0.7,0.1,1,0.2
		c0.3,0.1,0.6,0.3,0.8,0.6c0.2,0.2,0.4,0.6,0.6,1c0.1,0.4,0.2,0.9,0.2,1.4v1.3h1.5c0.1,0,0.2,0,0.3,0.1c0.1,0.1,0.1,0.2,0.1,0.4
		c0,0.2,0,0.3-0.1,0.4c0,0.1-0.1,0.1-0.3,0.1H6.8c0,0.5-0.1,1-0.3,1.5C6.3,9.6,6.1,10,5.7,10.3C5.4,10.7,5,11,4.6,11.2
		c-0.5,0.2-1,0.3-1.5,0.3H1.4l-0.1-1.1H3z M2.6,5.1c0,0.3,0,0.5,0.1,0.7c0.1,0.2,0.2,0.3,0.3,0.5c0.1,0.1,0.3,0.2,0.6,0.3
		c0.2,0.1,0.5,0.1,0.9,0.1h1.4V5.4c0-0.8-0.2-1.3-0.5-1.7C5.1,3.4,4.7,3.2,4.1,3.2C3.6,3.2,3.3,3.4,3,3.7C2.7,4.1,2.6,4.5,2.6,5.1z
		 M11,6.6c0.1,0,0.2,0,0.3,0.1c0.1,0.1,0.1,0.2,0.1,0.4c0,0.2,0,0.3-0.1,0.4c0,0.1-0.1,0.1-0.3,0.1H8.4c-0.1,0-0.2,0-0.3-0.1
		C8,7.5,8,7.3,8,7.1C8,7,8,6.8,8.1,6.7c0-0.1,0.1-0.1,0.3-0.1H11z M13.6,6.6c0.1,0,0.2,0,0.3,0.1c0.1,0.1,0.1,0.2,0.1,0.4
		c0,0.2,0,0.3-0.1,0.4c0,0.1-0.1,0.1-0.3,0.1H11c-0.1,0-0.2,0-0.3-0.1c-0.1-0.1-0.1-0.2-0.1-0.4c0-0.2,0-0.3,0.1-0.4
		c0-0.1,0.1-0.1,0.3-0.1H13.6z M16.2,6.6c0.1,0,0.2,0,0.3,0.1c0.1,0.1,0.1,0.2,0.1,0.4c0,0.2,0,0.3-0.1,0.4c0,0.1-0.1,0.1-0.3,0.1
		h-2.6c-0.1,0-0.2,0-0.3-0.1c-0.1-0.1-0.1-0.2-0.1-0.4c0-0.2,0-0.3,0.1-0.4c0-0.1,0.1-0.1,0.3-0.1H16.2z M18.8,6.6
		c0.1,0,0.2,0,0.3,0.1c0.1,0.1,0.1,0.2,0.1,0.4c0,0.2,0,0.3-0.1,0.4c0,0.1-0.1,0.1-0.3,0.1h-2.6c-0.1,0-0.2,0-0.3-0.1
		c-0.1-0.1-0.1-0.2-0.1-0.4c0-0.2,0-0.3,0.1-0.4c0-0.1,0.1-0.1,0.3-0.1H18.8z M20.2,6.6c0.4,0,0.7-0.1,1-0.3
		c0.3-0.2,0.4-0.5,0.4-0.9V3.2h1v2.2c0,0.7-0.2,1.3-0.6,1.7c-0.4,0.4-1,0.6-1.7,0.6h-1.5c-0.1,0-0.2,0-0.3-0.1
		c-0.1-0.1-0.1-0.2-0.1-0.4c0-0.2,0-0.3,0.1-0.4c0-0.1,0.1-0.1,0.3-0.1H20.2z M22.7,1.1h-1.3V0h1.3V1.1z M20.7,1.1h-1.3V0h1.3V1.1z
		 M10,19.8c0,0.6-0.1,1.1-0.3,1.6c-0.2,0.5-0.4,0.9-0.8,1.3c-0.3,0.4-0.7,0.7-1.2,0.9c-0.5,0.2-1,0.3-1.6,0.3H5.2
		c-1.2,0-2.1-0.4-2.7-1.1c-0.7-0.7-1-1.7-1-3v-2.8h1v2.7c0,0.5,0.1,0.9,0.2,1.2c0.1,0.4,0.3,0.7,0.5,0.9c0.2,0.3,0.5,0.5,0.9,0.6
		c0.4,0.1,0.8,0.2,1.3,0.2H6c0.5,0,0.9-0.1,1.3-0.3C7.7,22.5,8,22.3,8.2,22c0.3-0.3,0.4-0.6,0.6-1C8.9,20.7,9,20.3,9,19.9v-4.2h1
		V19.8z M6.2,15.3H4.9v-1.1h1.3V15.3z M14,20.2c-0.3,0-0.5,0-0.8-0.1c-0.3-0.1-0.5-0.2-0.7-0.4c-0.2-0.2-0.3-0.4-0.5-0.7
		C12,18.6,12,18.2,12,17.7v-7.3h1v7.1c0,0.4,0.1,0.8,0.3,1.1c0.2,0.3,0.5,0.4,1,0.4h0.3c0.2,0,0.3,0.2,0.3,0.5
		c0,0.4-0.1,0.6-0.3,0.6H14z M14.7,19.1c0.4,0,0.7-0.1,0.9-0.3c0.2-0.2,0.3-0.5,0.3-0.8v-0.6c0-0.9,0.2-1.6,0.7-2.1
		c0.5-0.5,1.1-0.8,2-0.8c0.4,0,0.8,0.1,1.1,0.2c0.3,0.1,0.6,0.3,0.8,0.6c0.2,0.3,0.4,0.6,0.5,0.9c0.1,0.3,0.2,0.7,0.2,1.1
		c0,0.9-0.2,1.6-0.7,2.1c-0.5,0.5-1.1,0.8-1.9,0.8c-0.4,0-0.8-0.1-1.2-0.2c-0.4-0.2-0.7-0.5-0.9-0.9c-0.1,0.2-0.2,0.4-0.3,0.6
		c-0.1,0.1-0.3,0.3-0.4,0.3c-0.1,0.1-0.3,0.1-0.5,0.2c-0.2,0-0.3,0-0.5,0h-0.3c-0.1,0-0.2,0-0.3-0.1c-0.1-0.1-0.1-0.2-0.1-0.4
		c0-0.2,0-0.3,0.1-0.4c0-0.1,0.1-0.1,0.3-0.1H14.7z M20.2,17.4c0-0.5-0.1-1-0.4-1.3c-0.2-0.3-0.7-0.5-1.2-0.5
		c-1.1,0-1.6,0.6-1.6,1.9c0,0.5,0.1,0.9,0.4,1.2c0.3,0.3,0.7,0.4,1.2,0.4c0.5,0,0.9-0.1,1.2-0.4C20.1,18.3,20.2,17.9,20.2,17.4z"/>
</g>
</svg>
