<svg xmlns="http://www.w3.org/2000/svg" width="24" height="24" viewBox="0 0 24 24">
    <g>
        <path d="M3,9c0-1.5,0.4-2.9,1.1-4.3c0.7-1.3,1.7-2.4,3-3.2C8.3,0.7,9.7,0.2,11.2,0c1.5-0.1,3,0.1,4.3,0.7
		c1.4,0.6,2.6,1.5,3.5,2.6c0.9,1.2,1.6,2.5,1.8,4c0.3,1.5,0.2,3-0.3,4.4c-0.5,1.4-1.2,2.7-2.3,3.7c-0.3,0.3-0.5,0.6-0.7,0.9L16.4,19
		c-0.1,0.1-0.2,0.2-0.3,0.3c-0.1,0.1-0.3,0.1-0.4,0.1H8.2c-0.1,0-0.3,0-0.4-0.1c-0.1-0.1-0.2-0.2-0.3-0.3l-1.1-2.7
		C6.3,16,6,15.7,5.7,15.5c-0.9-0.8-1.6-1.8-2-3C3.2,11.4,3,10.2,3,9z M7.5,21.8c0-0.2,0.1-0.4,0.2-0.5C7.9,21.1,8.1,21,8.2,21h7.5
		c0.2,0,0.4,0.1,0.5,0.2c0.1,0.1,0.2,0.3,0.2,0.5s-0.1,0.4-0.2,0.5c-0.1,0.1-0.3,0.2-0.5,0.2l-0.3,0.7c-0.1,0.2-0.3,0.5-0.6,0.6
		c-0.2,0.1-0.5,0.2-0.8,0.2H9.9c-0.3,0-0.6-0.1-0.8-0.2c-0.2-0.1-0.4-0.4-0.6-0.6l-0.3-0.7c-0.2,0-0.4-0.1-0.5-0.2
		C7.6,22.1,7.5,21.9,7.5,21.8z"/>
    </g>
</svg>
